/* XPM */
static char * kxterm_xpm[] = {
"48 48 5 1",
" 	c None",
".	c #000000",
"+	c #FFFFFF",
"@	c #E3E3E3",
"#	c #8E8E8E",
"                                                ",
"           .........................            ",
"         ...++++++++++++++++++++++++..          ",
"       ...++++++++++++++++++++++++++++..        ",
"     ...+@@@@@@@@@@@@@@@@@@@@@@@@@@@@@@+..      ",
"     .+++@@@@@@@@@@@@@@@@@@@@@@@@@@@@@@++.      ",
"     .+##################################.      ",
"     .+##################################.      ",
"     .+##..............................##.      ",
"     .+##.............................+##.      ",
"     .+##..+++++++++++++++++..........+##.      ",
"     .+##..+...............+..........+##.      ",
"     .+##..+.............+.+..........+##.      ",
"     .+##..+...............+..........+##.      ",
"     .+##..+...............+..........+##.      ",
"     .+##..+++++++++++++++++..........+##.      ",
"     .+##..+...............+..........+##.      ",
"     .+##..+.+++.........+.+..........+##.      ",
"     .+##..+...............++++++++++.+##.      ",
"     .+##..+...............+........+.+##.      ",
"     .+##..+...............+........+.+##.      ",
"     .+##..+++++++++++++++++........+.+##.      ",
"     .+##.............+.............+.+##.      ",
"     .+##.............+.............+.+##.      ",
"     .+##.............+.+++.........+.+##.      ",
"     .+##.............+.............+.+##.      ",
"     .+##.............+++++++++++++++.+##.      ",
"     .+##.............................+##.      ",
"     .+##.............................+##.      ",
"     .+##.............................+##.      ",
"     .+##.+++++++++++++++++++++++++++++##.      ",
"     .+##################################.      ",
"     .+##################################.      ",
"      ...................................       ",
"             ......................             ",
"            ........         ......             ",
"       .................................        ",
"      ..+++++++++++++++++++++++++++++++.        ",
"     ..++++.+.+.+.+.+.+.+.+.++++.+.+.+++.       ",
"    ..++++.+.+.+.+.+.+.+.+.+.++++.+.+.+++.      ",
"   ..++++.+.+.+.+.+.+.+.+.+.+.++++.+.+.+++.     ",
"  ..++++.+.+.+.+.+.+.+.+.+.+.+.++++.+.+.+++.    ",
" ..++++.+.+.+++++++++++++++++.+.++++.+.+.+++.   ",
" .+++++++++++++++++++++++++++++++++++++++++++.  ",
" .###########################################.  ",
" .###########################################.  ",
" .............................................  ",
"                                                "};
/* XPM */
static char * kxterm_xpm[] = {
"48 48 5 1",
" 	c None",
".	c #000000",
"+	c #FFFFFF",
"@	c #E3E3E3",
"#	c #8E8E8E",
"                                                ",
"           .........................            ",
"         ...++++++++++++++++++++++++..          ",
"       ...++++++++++++++++++++++++++++..        ",
"     ...+@@@@@@@@@@@@@@@@@@@@@@@@@@@@@@+..      ",
"     .+++@@@@@@@@@@@@@@@@@@@@@@@@@@@@@@++.      ",
"     .+##################################.      ",
"     .+##################################.      ",
"     .+##..............................##.      ",
"     .+##.............................+##.      ",
"     .+##..+++++++++++++++++..........+##.      ",
"     .+##..+...............+..........+##.      ",
"     .+##..+.............+.+..........+##.      ",
"     .+##..+...............+..........+##.      ",
"     .+##..+...............+..........+##.      ",
"     .+##..+++++++++++++++++..........+##.      ",
"     .+##..+...............+..........+##.      ",
"     .+##..+.+++.........+.+..........+##.      ",
"     .+##..+...............++++++++++.+##.      ",
"     .+##..+...............+........+.+##.      ",
"     .+##..+...............+........+.+##.      ",
"     .+##..+++++++++++++++++........+.+##.      ",
"     .+##.............+.............+.+##.      ",
"     .+##.............+.............+.+##.      ",
"     .+##.............+.+++.........+.+##.      ",
"     .+##.............+.............+.+##.      ",
"     .+##.............+++++++++++++++.+##.      ",
"     .+##.............................+##.      ",
"     .+##.............................+##.      ",
"     .+##.............................+##.      ",
"     .+##.+++++++++++++++++++++++++++++##.      ",
"     .+##################################.      ",
"     .+##################################.      ",
"      ...................................       ",
"             ......................             ",
"            ........         ......             ",
"       .................................        ",
"      ..+++++++++++++++++++++++++++++++.        ",
"     ..++++.+.+.+.+.+.+.+.+.++++.+.+.+++.       ",
"    ..++++.+.+.+.+.+.+.+.+.+.++++.+.+.+++.      ",
"   ..++++.+.+.+.+.+.+.+.+.+.+.++++.+.+.+++.     ",
"  ..++++.+.+.+.+.+.+.+.+.+.+.+.++++.+.+.+++.    ",
" ..++++.+.+.+++++++++++++++++.+.++++.+.+.+++.   ",
" .+++++++++++++++++++++++++++++++++++++++++++.  ",
" .###########################################.  ",
" .###########################################.  ",
" .............................................  ",
"                                                "};
