/* XPM */
static char * kxterm2_xpm[] = {
"32 32 5 1",
" 	c None",
".	c #000000",
"+	c #FFFFFF",
"@	c #E3E3E3",
"#	c #8E8E8E",
"                                ",
"      ...................       ",
"    ..+++++++++++++++++++..     ",
"   .+@@@@@@@@@@@@@@@@@@@@++.    ",
"   .+######################.    ",
"   .+#....................#.    ",
"   .+#.++++++++++++......+#.    ",
"   .+#.+..........+......+#.    ",
"   .+#.+........+.+......+#.    ",
"   .+#.+..........+......+#.    ",
"   .+#.++++++++++++......+#.    ",
"   .+#.+..........+......+#.    ",
"   .+#.+.++.....+.++++++.+#.    ",
"   .+#.+..........+....+.+#.    ",
"   .+#.++++++++++++....+.+#.    ",
"   .+#........+........+.+#.    ",
"   .+#........+.++.....+.+#.    ",
"   .+#........+........+.+#.    ",
"   .+#........++++++++++.+#.    ",
"   .+#...................+#.    ",
"   .+#++++++++++++++++++++#.    ",
"   .+######################.    ",
"    .......................     ",
"        ......     ....         ",
"    .......................     ",
"    .+++++++++++++++++++++.     ",
"  ..++.+.+.+.+.+.+.+++.+.++..   ",
"  .++.+.+.+.+.+.+.+.+++.+.++.   ",
" .++.+.+.+++++++++.+.+++.+.++.  ",
" .############################. ",
" .............................. ",
"                                "};
/* XPM */
static char * kxterm2_xpm[] = {
"32 32 5 1",
" 	c None",
".	c #000000",
"+	c #FFFFFF",
"@	c #E3E3E3",
"#	c #8E8E8E",
"                                ",
"      ...................       ",
"    ..+++++++++++++++++++..     ",
"   .+@@@@@@@@@@@@@@@@@@@@++.    ",
"   .+######################.    ",
"   .+#....................#.    ",
"   .+#.++++++++++++......+#.    ",
"   .+#.+..........+......+#.    ",
"   .+#.+........+.+......+#.    ",
"   .+#.+..........+......+#.    ",
"   .+#.++++++++++++......+#.    ",
"   .+#.+..........+......+#.    ",
"   .+#.+.++.....+.++++++.+#.    ",
"   .+#.+..........+....+.+#.    ",
"   .+#.++++++++++++....+.+#.    ",
"   .+#........+........+.+#.    ",
"   .+#........+.++.....+.+#.    ",
"   .+#........+........+.+#.    ",
"   .+#........++++++++++.+#.    ",
"   .+#...................+#.    ",
"   .+#++++++++++++++++++++#.    ",
"   .+######################.    ",
"    .......................     ",
"        ......     ....         ",
"    .......................     ",
"    .+++++++++++++++++++++.     ",
"  ..++.+.+.+.+.+.+.+++.+.++..   ",
"  .++.+.+.+.+.+.+.+.+++.+.++.   ",
" .++.+.+.+++++++++.+.+++.+.++.  ",
" .############################. ",
" .............................. ",
"                                "};
